inDegrees=no
num_controls=7
num_derivatives=13
num_iterations=132
num_multipliers=7
num_parameters=0
num_slacks=7
num_states=26
objective=5.294958
objective_accelerations=0.725275
objective_balance=0.017407
objective_effort=0.176751
objective_height=4.301696
objective_ligament=0.073829
solver_duration=1462.546311
status=Solve_Succeeded
success=true
DataType=double
version=3
OpenSimVersion=4.4-2022-07-23-0e9fedc
endheader
time	/jointset/ground_pelvis/pelvis_tilt/value	/jointset/ground_pelvis/pelvis_tx/value	/jointset/ground_pelvis/pelvis_ty/value	/jointset/hip_l/hip_flexion_l/value	/jointset/hip_l/hip_adduction_l/value	/jointset/hip_l/hip_rotation_l/value	/jointset/back/lumbar_extension/value	/jointset/patellofemoral_l/patellar_flexion_l/value	/jointset/knee_l/knee_flexion_l/value	/jointset/knee_l/knee_adduction_l/value	/jointset/knee_l/knee_rotation_l/value	/jointset/ankle_l/ankle_angle_l/value	/jointset/subtalar_l/subtalar_angle_l/value	/jointset/ground_pelvis/pelvis_tilt/speed	/jointset/ground_pelvis/pelvis_tx/speed	/jointset/ground_pelvis/pelvis_ty/speed	/jointset/hip_l/hip_flexion_l/speed	/jointset/hip_l/hip_adduction_l/speed	/jointset/hip_l/hip_rotation_l/speed	/jointset/back/lumbar_extension/speed	/jointset/patellofemoral_l/patellar_flexion_l/speed	/jointset/knee_l/knee_flexion_l/speed	/jointset/knee_l/knee_adduction_l/speed	/jointset/knee_l/knee_rotation_l/speed	/jointset/ankle_l/ankle_angle_l/speed	/jointset/subtalar_l/subtalar_angle_l/speed	/forceset/tau_hip_flexion_l	/forceset/tau_hip_adduction_l	/forceset/tau_hip_rotation_l	/forceset/tau_knee_flexion_l	/forceset/tau_ankle_angle_l	/forceset/tau_subtalar_angle_l	/forceset/tau_lumbar_extension	lambda_cid13_p0	lambda_cid13_p1	lambda_cid13_p2	lambda_cid13_p3	lambda_cid13_p4	lambda_cid13_p5	lambda_cid14_p0	/jointset/ground_pelvis/pelvis_tilt/accel	/jointset/ground_pelvis/pelvis_tx/accel	/jointset/ground_pelvis/pelvis_ty/accel	/jointset/hip_l/hip_flexion_l/accel	/jointset/hip_l/hip_adduction_l/accel	/jointset/hip_l/hip_rotation_l/accel	/jointset/back/lumbar_extension/accel	/jointset/patellofemoral_l/patellar_flexion_l/accel	/jointset/knee_l/knee_flexion_l/accel	/jointset/knee_l/knee_adduction_l/accel	/jointset/knee_l/knee_rotation_l/accel	/jointset/ankle_l/ankle_angle_l/accel	/jointset/subtalar_l/subtalar_angle_l/accel	gamma_cid13_p0	gamma_cid13_p1	gamma_cid13_p2	gamma_cid13_p3	gamma_cid13_p4	gamma_cid13_p5	gamma_cid14_p0
1.5	-0.3482497521223871	0.05385421177499891	0.7910958568664254	1.008792667089958	-0.3566178178694807	-0.05604952121506336	-0.3273960609470054	0.8176627822786212	0.8176627822786933	-0.02901070809134972	-0.1726715346194749	0.2763134003518436	0.1576526505771343	0.4943031861399413	0.2695774997497049	0.4975937053184842	-2.324658771690935	0.0006596090653149061	-0.5955498019590258	0.6199421153764975	-2.211892236432077	-2.21189223643167	-0.3139873254300539	0.03142442490454275	-0.5546572791468695	-0.2194663102734805	-0.1330424501936009	0.03513474821654206	-0.001152546144178463	-0.1266966875591319	-0.04329415227111796	0.01806248105169285	0.126252548212143	-36.57196448159026	-3.624253897931127	2.790539481026671	-2.273703802250744	-428.7800666586972	-61.0922208068302	-10.22987589579402	0.5841752218219775	0.5695396075635112	-0.7755662754371468	-1.267003411147538	0.3103235526504319	-0.4985971943816961	1.58024363259127	-1.156816623672606	-1.15681662367261	-0.1516769517921057	0.3305489948934818	-0.5446776106419743	0.4234762558954371	6.231069897317818e-07	-4.334922622927687e-07	-7.261207007528224e-06	-4.01493312938247e-07	1.44370486436761e-06	1.751169453268965e-06	8.156222579404063e-07
1.51	-0.3432775865227445	0.05657841078393205	0.7960320550313209	0.985483844329461	-0.3565985246617926	-0.06202465638513453	-0.3211197923281703	0.7954881039278473	0.7954881039279891	-0.03216670471976386	-0.1723409393739918	0.2707398873413527	0.1554754053429825	0.5000180331734297	0.2752463617007431	0.489533611096121	-2.336781128489067	0.003204591752400874	-0.5994398121898474	0.6352084858092307	-2.222710438524891	-2.222710438524785	-0.317161393938841	0.03470703722563868	-0.5599010632697153	-0.215924511262874	-0.1276617225435465	0.03318475165093839	-0.0002162428123780193	-0.1253804362089827	-0.04040776215196505	0.01711553462091989	0.1219627369663383	-35.52885335269095	-3.446584059358448	2.820406708916271	-2.882561037024757	-425.4510679976516	-61.12708261624351	-11.14697925436531	0.5484130574208324	0.5631399740796144	-0.8377751356811891	-1.136065732863124	0.2283293583552718	-0.3276427115381756	1.484365361284468	-0.9945539723263402	-0.9945539723714291	-0.3927008473951744	0.3277528924132014	-0.4925150465520172	0.3288510388001643	6.129108462425114e-07	7.845973570488513e-07	-6.957241836490387e-06	-2.304407816105466e-07	1.491896939409684e-06	2.451409468973293e-06	8.754315149505055e-07
1.52	-0.3382516177301019	0.05935881450941635	0.8008843434259841	0.9620635552172446	-0.3565534328809033	-0.06803737961235647	-0.3146939536824711	0.7732151971621931	0.7732151971622043	-0.03535292784287915	-0.1719773908968409	0.265118279242944	0.1533354419619671	0.5050638247392617	0.2808184430599388	0.4808117512720889	-2.346952042035884	0.005819323704212913	-0.6030674133848933	0.6498561207487866	-2.231537919427322	-2.231537919427515	-0.3200326243265367	0.03801507121455002	-0.5642762967304003	-0.2120099396459837	-0.1222809948934689	0.03123475508522549	0.0007200605182237532	-0.1240641848588535	-0.03752137203284456	0.0161685881899917	0.117672925720584	-34.4790004607659	-3.271972352617281	2.852910221963335	-3.538944539837185	-422.022270489971	-61.27231774486629	-12.06099900895104	0.4503641282906794	0.550183489195064	-0.9079193957709045	-0.8767147608845143	0.3242734055956575	-0.4461153872263168	1.456496533955824	-0.7586723855960825	-0.7586723855960011	-0.09110932757406198	0.3356333284567355	-0.3709674782096868	0.4980307771521628	6.011453161684688e-07	1.187350271810205e-06	-6.760644824522557e-06	-1.636034172634605e-07	1.512216945203142e-06	2.767674919044124e-06	8.779383458138222e-07
1.53	-0.3331784532480952	0.06219375252699236	0.8056461971933486	0.9385518839663175	-0.3564817622628683	-0.07408232567673984	-0.3081246848023327	0.7508635666549816	0.7508635666548561	-0.03856790221617276	-0.1715781957395445	0.2594561571099976	0.1512361085240659	0.5094905145357652	0.2860848009950117	0.4714602458182637	-2.355033140051456	0.008494390074609693	-0.6056766594881688	0.6638674477915801	-2.23849992848251	-2.238499928482611	-0.3230849556367702	0.04196551070366705	-0.5681178078115868	-0.2078846289920936	-0.1185876092729287	0.03040435702203444	0.001763856168706083	-0.1196795011322615	-0.03995897808990708	0.01506779083583582	0.1143598322277422	-35.20780970213904	-2.877091742033909	3.030742196563869	-2.369042701802937	-419.0385594711481	-60.78756453900369	-12.97086928171222	0.427091374878784	0.5021618282613356	-0.9632799881348525	-0.7213635383354212	0.2370424009395301	-0.1306998470317252	1.353919666241369	-0.6218847957173151	-0.6218847957035412	-0.430896800574701	0.4447775257434812	-0.386164234964098	0.3663124964812702	5.877123128481057e-07	7.238079379550333e-07	-6.678126481566607e-06	-2.074946678332762e-07	1.502922877419948e-06	2.675967393129367e-06	8.195613488961832e-07
1.54	-0.3280633678742121	0.06507881410043877	0.8103116331325857	0.9149698904919377	-0.3563837571514823	-0.08014583832726831	-0.3014192088764054	0.7284509321310636	0.7284509321310843	-0.04181712025524754	-0.1711354905344027	0.253756535603858	0.1491773344500974	0.5134480031142696	0.2908431542340171	0.4615281856466713	-2.361016486724658	0.01108622237223726	-0.6067807305976385	0.6770975299064018	-2.243738722747182	-2.243738722747191	-0.326881357660107	0.04671708085697125	-0.5717761713684101	-0.2038980668592548	-0.1148942236525745	0.02957395895831015	0.002807651822123751	-0.1152948174057938	-0.0423965841471434	0.01396699348089241	0.111046738734842	-35.9307870845392	-2.484377425303626	3.210233906530641	-1.261671123162466	-415.9919659795347	-60.40950144854084	-13.8763068286701	0.3565238846907736	0.448582549981566	-1.024030339324364	-0.4571644924105364	0.3076265910415583	-0.145080388464949	1.300247548361494	-0.4140294274927704	-0.4140294274927796	-0.2399234701948911	0.4958594612944186	-0.3343379733369711	0.47028107294189	3.845459681437456e-07	2.43315314309815e-06	-4.476956804906873e-06	1.122991609808451e-07	1.107787405328125e-06	2.688117576837192e-06	7.150522717327372e-07
1.55	-0.3229113002548106	0.06800917030241441	0.8148748318909006	0.8913393283960228	-0.3562584077223969	-0.08622950604452774	-0.2945857111457595	0.7059960519585602	0.7059960519585334	-0.04509414547314011	-0.1706522695972093	0.2480229314650815	0.1471610584778119	0.5168710933950901	0.2951674031356674	0.45101307803459	-2.364708104445818	0.01396967676515561	-0.6097491460356649	0.6894292165272604	-2.246839474661528	-2.246839474661785	-0.3286010931914026	0.04999654503517443	-0.5748188474821511	-0.199343018572038	-0.1100469344129411	0.02847462395020799	0.003803240014535737	-0.113157137883619	-0.04124952589319564	0.01209678673769482	0.1069851195522388	-35.55196065830802	-1.782026010047436	3.148004096540479	-1.141906144783571	-412.9160223975927	-59.60595483376478	-14.77803936496162	0.3210342397170073	0.4154959221219367	-1.080063849429606	-0.2670064258330394	0.2752210497393886	-0.3418517442576096	1.1737092644583	-0.1985164696473378	-0.1985164696842575	-0.1480963720514336	0.255010533559155	-0.270030340545907	0.4484929053207954	-3.722618293781639e-08	6.646042686652199e-06	1.652676692810001e-07	8.511214508242621e-07	2.680955326198612e-07	2.819929904240595e-06	5.573910151556468e-07
1.56	-0.3177278352046264	0.07098099896577965	0.8193299169976384	0.8676834809201277	-0.3561049205121102	-0.09233668384075791	-0.2876340805397998	0.68352208058766	0.683522080587614	-0.04839038760162222	-0.1701340498907992	0.2422627409831355	0.1451904082281397	0.5197274892735381	0.2991376465119361	0.4399054553313018	-2.366073562721518	0.01671377861102866	-0.6114827463851595	0.700724104968546	-2.247556962425555	-2.247556962426058	-0.3307247398208781	0.05371683471241747	-0.5770934400020248	-0.1947729223364484	-0.1051996451731996	0.02737528894188595	0.004798828207411433	-0.1110194583614715	-0.04010246763933701	0.0102265799941786	0.102923500369804	-35.16740054356937	-1.0844538650228	3.090848408615858	-1.02726881669655	-409.7784295793691	-58.79584740303444	-15.67486422636095	0.2431850042160481	0.3777814449052664	-1.142533357565759	0.008067396681512672	0.2797560816324544	0.1018826292415762	1.092887912446753	0.062623402571201	0.06262340257120171	-0.3207056898310068	0.5840245611025859	-0.180721254563471	0.4732906626164425	-2.237409026878922e-07	8.250509881855557e-06	2.156592484334864e-06	1.146192196831499e-06	-1.061092120478351e-07	2.795255961672008e-06	4.709996956945235e-07
1.57	-0.3125188383859872	0.07399046696556007	0.8236711446314515	0.8440258215305508	-0.3559247193479912	-0.09845183248704584	-0.2805745822665318	0.6610523475587187	0.6610523475584378	-0.05171189766920501	-0.1695737290900354	0.236483067244736	0.1432652223550923	0.5219707108626529	0.3026665544658234	0.428264537950188	-2.365064239002134	0.01933847225606122	-0.6115622016994456	0.7109907828615557	-2.246047000261914	-2.246047000262298	-0.3334720207268519	0.05828765901541072	-0.5787645343079878	-0.1902340727778126	-0.1009712620634121	0.02606356734919097	0.005614617644099901	-0.108010422297903	-0.04097717101644043	0.008929184315322155	0.09925441367395829	-35.43067044764306	-0.6204274983595105	3.183099607198016	-0.2972435662370312	-407.2990836640901	-58.46931173723989	-16.55574723427427	0.1997252054650417	0.327183042874014	-1.186156729953722	0.2064814032677968	0.2549981356130815	-0.06475698250515663	0.9658427041585527	0.24648404322071	0.2464840432390914	-0.2350741024950385	0.3847281222981458	-0.1485854473255954	0.4478134235753479	-1.161838332736131e-07	6.594449141620588e-06	8.342927254712489e-07	8.865735130435172e-07	1.015449533351723e-07	2.574974181638432e-06	4.736957976283581e-07
1.58	-0.3072904424576544	0.07703257155932876	0.8278937059311371	0.820390078686879	-0.3557180368214734	-0.1045681551606713	-0.2734179602190558	0.6386079744351462	0.6386079744351799	-0.05505754750716804	-0.1689694766953025	0.2306890261775318	0.1413861512418496	0.5236073112201455	0.3056649653095921	0.4161721885058601	-2.361690253534635	0.02201005108816826	-0.6117175518434613	0.7201488598118011	-2.2424849812999	-2.242484981300164	-0.3355526940934275	0.06250315361445856	-0.5799669057624876	-0.1855499703756497	-0.09674287895376713	0.02475184575616164	0.006430407084809981	-0.1050013862345245	-0.04185187439369552	0.00763178863595466	0.09558532697807237	-35.69459395386693	-0.1563212038281619	3.275376861708076	0.4237435009240063	-404.8490575948002	-58.17545368432113	-17.41427721284097	0.121860757890976	0.2716820228814741	-1.232819770208607	0.4809997463042861	0.2891331190471472	0.08670366329582557	0.8711677238935343	0.4730347622460945	0.4730347622461338	-0.1873841819514253	0.5129586203137061	-0.0869766842707926	0.5023412313218433	-7.000615169217975e-08	5.796097725507327e-06	1.699630736361767e-07	7.592793325631481e-07	1.811993767028907e-07	2.431842674818905e-06	4.801031466094497e-07
